<?xml version="1.0" encoding="UTF-8" standalone="no"?>
<svg xmlns="http://www.w3.org/2000/svg" xmlns:xlink="http://www.w3.org/1999/xlink" width="40px" height="40px" viewBox="0 0 40 40" version="1.1"><title>Smiling Friendly</title><desc>Your unique vanillicon is crafted with love by the team at vanillaforums.com.</desc><defs/><g id="vanillicon" stroke="none" stroke-width="1" fill="none" fill-rule="evenodd"><rect id="background" fill="#57F1F7" x="-2" y="-2" width="44" height="44"/><g id="avatar" transform="rotate(28, 20, 20) translate(3.000000, 3.000000)"><circle id="body" fill="#ECE2BC" cx="17" cy="17" r="16"/><g id="eyes" transform="translate(8.000000, 11.000000)" fill="#040103"><path d="M3,6 C4.65685425,6 6,4.65685425 6,3 C6,1.34314575 4.65685425,0 3,0 C1.34314575,0 0,1.34314575 0,3 C0,4.65685425 1.34314575,6 3,6 Z" id="left_eye"/><circle id="right_eye" cx="15" cy="3" r="3"/></g><g id="mouth" transform="translate(9.000000, 22.000000)" fill="#040103"><path d="M8,3 C5.96789841,3 4.05823694,2.24131629 2.59170015,0.895011848 C1.98143205,0.334775879 1.03255101,0.375334939 0.472315046,0.985603044 C-0.0879209237,1.59587115 -0.0473618641,2.54475218 0.562906241,3.10498815 C2.57763319,4.95454001 5.20913118,6 8,6 C10.7908688,6 13.4223668,4.95454001 15.4370938,3.10498815 C16.0473619,2.54475218 16.0879209,1.59587115 15.527685,0.985603044 C14.967449,0.375334939 14.018568,0.334775879 13.4082998,0.895011848 C11.9417631,2.24131629 10.0321016,3 8,3 Z" id="mouth"/></g><path d="M34,17 C34,7.61115925 26.3888407,0 17,0 C7.61115925,0 0,7.61115925 0,17 C0,26.3888407 7.61115925,34 17,34 C26.3888407,34 34,26.3888407 34,17 Z M3,17 C3,9.2680135 9.2680135,3 17,3 C24.7319865,3 31,9.2680135 31,17 C31,24.7319865 24.7319865,31 17,31 C9.2680135,31 3,24.7319865 3,17 Z" id="circle" fill="#040103"/></g></g></svg>
